<?xml version="1.0" standalone="no"?>
<!DOCTYPE svg PUBLIC "-//W3C//DTD SVG 20010904//EN"
 "http://www.w3.org/TR/2001/REC-SVG-20010904/DTD/svg10.dtd">
<svg version="1.0" xmlns="http://www.w3.org/2000/svg"
 width="717.000000pt" height="717.000000pt" viewBox="0 0 717.000000 717.000000"
 preserveAspectRatio="xMidYMid meet">
<metadata>
Created by potrace 1.14, written by Peter Selinger 2001-2017
</metadata>
<g transform="translate(0.000000,717.000000) scale(0.100000,-0.100000)"
fill="#000000" stroke="none">
<path d="M1389 4380 c-61 -17 -86 -39 -118 -100 -43 -84 -17 -185 71 -272 53
-54 84 -60 131 -29 75 49 119 121 123 201 7 130 -98 231 -207 200z"/>
<path d="M1931 4212 c-6 -11 -22 -27 -37 -37 -27 -18 -28 -17 -51 10 -26 30
-33 28 -83 -29 -43 -49 -60 -88 -60 -141 0 -44 -4 -55 -30 -80 -16 -16 -30
-35 -30 -44 0 -14 124 -141 139 -141 4 0 16 10 27 23 28 31 86 77 98 78 6 0
23 2 37 3 30 2 91 42 133 85 l28 29 -36 39 -35 40 29 22 c17 12 37 33 46 47
15 22 15 27 3 40 -13 12 -24 5 -89 -60 l-75 -75 -27 27 c-16 14 -28 30 -28 34
0 5 23 31 51 58 51 49 54 61 19 80 -15 8 -21 6 -29 -8z"/>
<path d="M970 4167 c-127 -42 -156 -181 -59 -290 60 -69 169 -97 242 -62 47
22 62 56 60 129 -4 155 -122 263 -243 223z"/>
<path d="M3193 3957 c-3 -5 -5 -79 -5 -165 1 -87 1 -279 1 -428 l1 -271 78 1
c56 1 76 4 75 14 -4 16 -4 16 46 -8 52 -26 137 -25 198 1 56 24 118 89 137
146 72 212 -117 415 -321 344 l-53 -18 0 193 0 192 -76 4 c-42 2 -78 -1 -81
-5z m347 -526 c32 -23 55 -82 46 -117 -12 -46 -62 -84 -110 -84 -103 0 -162
106 -100 179 43 52 111 61 164 22z"/>
<path d="M6014 3528 l1 -433 78 -3 c68 -3 77 -1 78 15 0 10 1 72 3 138 3 138
12 167 57 189 37 19 63 20 89 6 38 -20 45 -49 45 -200 l0 -145 78 -3 77 -3 0
163 c-1 174 -8 213 -51 266 -32 40 -93 74 -141 79 -43 5 -138 -14 -138 -28 0
-5 -4 -9 -9 -9 -6 0 -9 82 -8 200 l2 200 -81 0 -81 0 1 -432z"/>
<path d="M3875 3920 c-11 -4 -32 -6 -47 -6 -22 1 -28 -3 -29 -19 -3 -61 -4
-773 -1 -786 3 -12 19 -16 82 -16 l80 -1 2 175 3 175 63 -122 c87 -167 116
-215 131 -215 7 0 49 70 93 155 44 85 84 159 89 165 5 5 9 -57 9 -158 0 -92 3
-167 8 -168 4 -1 40 -3 80 -5 53 -3 72 -1 73 9 0 6 1 189 2 404 2 286 -1 394
-9 397 -6 2 -31 7 -55 11 l-44 7 -64 -124 c-35 -68 -81 -154 -101 -193 -21
-38 -47 -90 -60 -114 l-22 -44 -30 54 c-16 30 -70 134 -120 232 -50 97 -96
181 -102 186 -6 5 -20 5 -31 1z"/>
<path d="M2435 3892 c-3 -3 -5 -179 -5 -391 0 -291 -3 -392 -13 -411 -12 -24
-18 -25 -105 -28 l-92 -3 0 -69 c0 -49 4 -70 13 -71 63 -7 170 -6 206 3 58 15
125 79 140 133 8 32 16 591 12 812 l-1 33 -75 -2 c-41 -1 -77 -4 -80 -6z"/>
<path d="M1434 3717 c-60 -62 -127 -126 -149 -142 -69 -52 -85 -77 -87 -139
-1 -87 59 -151 146 -155 91 -3 166 64 166 148 0 31 6 38 91 117 24 23 61 59
82 81 l37 39 -79 82 c-44 45 -84 82 -89 82 -5 0 -58 -51 -118 -113z"/>
<path d="M5108 3676 l-3 -71 -32 1 -33 1 0 -74 0 -73 35 0 35 0 0 -119 c0
-126 8 -161 43 -199 43 -46 88 -61 168 -57 120 6 114 1 116 84 1 64 -1 72 -15
66 -10 -4 -39 -9 -67 -12 -40 -4 -55 -1 -74 15 -23 18 -25 26 -25 112 -1 50 2
97 6 103 4 7 41 10 97 9 l91 -1 0 69 0 70 -30 1 c-16 0 -58 1 -92 2 l-63 1 -5
70 -5 71 -72 1 -72 1 -3 -71z"/>
<path d="M758 3702 c-19 -4 -18 0 -22 -162 -2 -69 6 -152 19 -207 3 -13 7 -31
9 -41 7 -33 75 -169 90 -182 9 -7 16 -16 16 -21 0 -5 8 -17 18 -27 10 -10 25
-27 33 -38 22 -30 111 -105 137 -115 12 -5 22 -13 22 -19 0 -5 3 -9 8 -8 4 1
29 -8 55 -20 92 -42 191 -61 295 -57 53 2 113 8 132 15 19 6 46 13 58 16 43 9
116 47 182 95 69 50 150 130 150 148 0 6 5 11 10 11 6 0 10 7 10 15 0 8 4 15
8 15 7 0 40 57 47 80 1 3 9 22 19 43 28 64 38 135 40 295 2 121 0 155 -11 159
-12 5 -72 6 -155 4 l-36 -1 2 -137 c2 -76 -1 -153 -6 -172 -5 -18 -11 -42 -13
-53 -9 -47 -63 -135 -115 -187 -46 -46 -164 -124 -185 -121 -3 0 -20 -6 -38
-13 -20 -9 -63 -13 -117 -11 -111 3 -126 6 -204 44 -137 65 -242 204 -271 355
-6 32 -6 182 -1 253 4 47 15 42 -104 46 -36 1 -73 0 -82 -2z"/>
<path d="M2846 3599 c-52 -12 -94 -37 -135 -79 -128 -132 -86 -348 82 -420 65
-28 170 -25 234 8 36 19 116 100 119 120 0 4 6 21 13 37 31 73 -4 197 -74 267
-57 57 -159 85 -239 67z m101 -154 c36 -10 73 -62 73 -102 0 -71 -45 -113
-121 -113 -33 0 -48 7 -75 34 -37 37 -45 82 -23 130 13 28 85 68 109 62 8 -3
25 -7 37 -11z"/>
<path d="M4733 3600 c-45 -10 -103 -36 -103 -48 1 -4 18 -26 39 -49 l38 -43
59 6 c51 5 63 3 87 -16 38 -30 34 -40 -10 -25 -128 44 -285 -67 -268 -190 2
-16 4 -35 4 -42 2 -21 53 -73 91 -93 44 -23 120 -21 168 4 31 16 49 18 45 4
-4 -10 26 -16 88 -16 69 0 65 -13 63 201 -1 155 -2 158 -31 205 -52 85 -158
125 -270 102z m132 -300 c38 -31 -4 -76 -80 -85 -71 -9 -102 69 -37 94 33 13
97 7 117 -9z"/>
<path d="M5695 3605 c-5 -2 -29 -9 -52 -15 -57 -14 -135 -86 -162 -150 -26
-61 -27 -151 -1 -208 23 -51 85 -111 137 -134 84 -37 214 -20 290 38 56 42 59
59 15 85 -20 13 -39 26 -42 29 -3 4 -14 12 -24 17 -16 9 -26 6 -53 -14 -36
-28 -95 -33 -133 -13 -28 15 -60 69 -60 101 0 39 41 92 80 105 39 13 81 4 120
-25 26 -18 26 -18 88 18 34 20 62 40 62 45 0 17 -71 77 -114 97 -42 18 -130
32 -151 24z"/>
</g>
</svg>
